%TF.GenerationSoftware,KiCad,Pcbnew,9.0.2-9.0.2-0~ubuntu24.04.1*%
%TF.CreationDate,2025-08-01T01:18:43+01:00*%
%TF.ProjectId,cadpadPCB,63616470-6164-4504-9342-2e6b69636164,rev?*%
%TF.SameCoordinates,Original*%
%TF.FileFunction,Legend,Bot*%
%TF.FilePolarity,Positive*%
%FSLAX46Y46*%
G04 Gerber Fmt 4.6, Leading zero omitted, Abs format (unit mm)*
G04 Created by KiCad (PCBNEW 9.0.2-9.0.2-0~ubuntu24.04.1) date 2025-08-01 01:18:43*
%MOMM*%
%LPD*%
G01*
G04 APERTURE LIST*
%ADD10C,0.100000*%
G04 APERTURE END LIST*
D10*
X158624687Y-45667236D02*
X158672306Y-45714856D01*
X158672306Y-45714856D02*
X158815163Y-45762475D01*
X158815163Y-45762475D02*
X158910401Y-45762475D01*
X158910401Y-45762475D02*
X159053258Y-45714856D01*
X159053258Y-45714856D02*
X159148496Y-45619617D01*
X159148496Y-45619617D02*
X159196115Y-45524379D01*
X159196115Y-45524379D02*
X159243734Y-45333903D01*
X159243734Y-45333903D02*
X159243734Y-45191046D01*
X159243734Y-45191046D02*
X159196115Y-45000570D01*
X159196115Y-45000570D02*
X159148496Y-44905332D01*
X159148496Y-44905332D02*
X159053258Y-44810094D01*
X159053258Y-44810094D02*
X158910401Y-44762475D01*
X158910401Y-44762475D02*
X158815163Y-44762475D01*
X158815163Y-44762475D02*
X158672306Y-44810094D01*
X158672306Y-44810094D02*
X158624687Y-44857713D01*
X157767544Y-45762475D02*
X157767544Y-45238665D01*
X157767544Y-45238665D02*
X157815163Y-45143427D01*
X157815163Y-45143427D02*
X157910401Y-45095808D01*
X157910401Y-45095808D02*
X158100877Y-45095808D01*
X158100877Y-45095808D02*
X158196115Y-45143427D01*
X157767544Y-45714856D02*
X157862782Y-45762475D01*
X157862782Y-45762475D02*
X158100877Y-45762475D01*
X158100877Y-45762475D02*
X158196115Y-45714856D01*
X158196115Y-45714856D02*
X158243734Y-45619617D01*
X158243734Y-45619617D02*
X158243734Y-45524379D01*
X158243734Y-45524379D02*
X158196115Y-45429141D01*
X158196115Y-45429141D02*
X158100877Y-45381522D01*
X158100877Y-45381522D02*
X157862782Y-45381522D01*
X157862782Y-45381522D02*
X157767544Y-45333903D01*
X156862782Y-45762475D02*
X156862782Y-44762475D01*
X156862782Y-45714856D02*
X156958020Y-45762475D01*
X156958020Y-45762475D02*
X157148496Y-45762475D01*
X157148496Y-45762475D02*
X157243734Y-45714856D01*
X157243734Y-45714856D02*
X157291353Y-45667236D01*
X157291353Y-45667236D02*
X157338972Y-45571998D01*
X157338972Y-45571998D02*
X157338972Y-45286284D01*
X157338972Y-45286284D02*
X157291353Y-45191046D01*
X157291353Y-45191046D02*
X157243734Y-45143427D01*
X157243734Y-45143427D02*
X157148496Y-45095808D01*
X157148496Y-45095808D02*
X156958020Y-45095808D01*
X156958020Y-45095808D02*
X156862782Y-45143427D01*
X156386591Y-45095808D02*
X156386591Y-46095808D01*
X156386591Y-45143427D02*
X156291353Y-45095808D01*
X156291353Y-45095808D02*
X156100877Y-45095808D01*
X156100877Y-45095808D02*
X156005639Y-45143427D01*
X156005639Y-45143427D02*
X155958020Y-45191046D01*
X155958020Y-45191046D02*
X155910401Y-45286284D01*
X155910401Y-45286284D02*
X155910401Y-45571998D01*
X155910401Y-45571998D02*
X155958020Y-45667236D01*
X155958020Y-45667236D02*
X156005639Y-45714856D01*
X156005639Y-45714856D02*
X156100877Y-45762475D01*
X156100877Y-45762475D02*
X156291353Y-45762475D01*
X156291353Y-45762475D02*
X156386591Y-45714856D01*
X155053258Y-45762475D02*
X155053258Y-45238665D01*
X155053258Y-45238665D02*
X155100877Y-45143427D01*
X155100877Y-45143427D02*
X155196115Y-45095808D01*
X155196115Y-45095808D02*
X155386591Y-45095808D01*
X155386591Y-45095808D02*
X155481829Y-45143427D01*
X155053258Y-45714856D02*
X155148496Y-45762475D01*
X155148496Y-45762475D02*
X155386591Y-45762475D01*
X155386591Y-45762475D02*
X155481829Y-45714856D01*
X155481829Y-45714856D02*
X155529448Y-45619617D01*
X155529448Y-45619617D02*
X155529448Y-45524379D01*
X155529448Y-45524379D02*
X155481829Y-45429141D01*
X155481829Y-45429141D02*
X155386591Y-45381522D01*
X155386591Y-45381522D02*
X155148496Y-45381522D01*
X155148496Y-45381522D02*
X155053258Y-45333903D01*
X154148496Y-45762475D02*
X154148496Y-44762475D01*
X154148496Y-45714856D02*
X154243734Y-45762475D01*
X154243734Y-45762475D02*
X154434210Y-45762475D01*
X154434210Y-45762475D02*
X154529448Y-45714856D01*
X154529448Y-45714856D02*
X154577067Y-45667236D01*
X154577067Y-45667236D02*
X154624686Y-45571998D01*
X154624686Y-45571998D02*
X154624686Y-45286284D01*
X154624686Y-45286284D02*
X154577067Y-45191046D01*
X154577067Y-45191046D02*
X154529448Y-45143427D01*
X154529448Y-45143427D02*
X154434210Y-45095808D01*
X154434210Y-45095808D02*
X154243734Y-45095808D01*
X154243734Y-45095808D02*
X154148496Y-45143427D01*
X158672306Y-46420038D02*
X158767544Y-46372419D01*
X158767544Y-46372419D02*
X158910401Y-46372419D01*
X158910401Y-46372419D02*
X159053258Y-46420038D01*
X159053258Y-46420038D02*
X159148496Y-46515276D01*
X159148496Y-46515276D02*
X159196115Y-46610514D01*
X159196115Y-46610514D02*
X159243734Y-46800990D01*
X159243734Y-46800990D02*
X159243734Y-46943847D01*
X159243734Y-46943847D02*
X159196115Y-47134323D01*
X159196115Y-47134323D02*
X159148496Y-47229561D01*
X159148496Y-47229561D02*
X159053258Y-47324800D01*
X159053258Y-47324800D02*
X158910401Y-47372419D01*
X158910401Y-47372419D02*
X158815163Y-47372419D01*
X158815163Y-47372419D02*
X158672306Y-47324800D01*
X158672306Y-47324800D02*
X158624687Y-47277180D01*
X158624687Y-47277180D02*
X158624687Y-46943847D01*
X158624687Y-46943847D02*
X158815163Y-46943847D01*
X158196115Y-47372419D02*
X158196115Y-46705752D01*
X158196115Y-46372419D02*
X158243734Y-46420038D01*
X158243734Y-46420038D02*
X158196115Y-46467657D01*
X158196115Y-46467657D02*
X158148496Y-46420038D01*
X158148496Y-46420038D02*
X158196115Y-46372419D01*
X158196115Y-46372419D02*
X158196115Y-46467657D01*
X157719925Y-46705752D02*
X157719925Y-47372419D01*
X157719925Y-46800990D02*
X157672306Y-46753371D01*
X157672306Y-46753371D02*
X157577068Y-46705752D01*
X157577068Y-46705752D02*
X157434211Y-46705752D01*
X157434211Y-46705752D02*
X157338973Y-46753371D01*
X157338973Y-46753371D02*
X157291354Y-46848609D01*
X157291354Y-46848609D02*
X157291354Y-47372419D01*
X156386592Y-46705752D02*
X156386592Y-47515276D01*
X156386592Y-47515276D02*
X156434211Y-47610514D01*
X156434211Y-47610514D02*
X156481830Y-47658133D01*
X156481830Y-47658133D02*
X156577068Y-47705752D01*
X156577068Y-47705752D02*
X156719925Y-47705752D01*
X156719925Y-47705752D02*
X156815163Y-47658133D01*
X156386592Y-47324800D02*
X156481830Y-47372419D01*
X156481830Y-47372419D02*
X156672306Y-47372419D01*
X156672306Y-47372419D02*
X156767544Y-47324800D01*
X156767544Y-47324800D02*
X156815163Y-47277180D01*
X156815163Y-47277180D02*
X156862782Y-47181942D01*
X156862782Y-47181942D02*
X156862782Y-46896228D01*
X156862782Y-46896228D02*
X156815163Y-46800990D01*
X156815163Y-46800990D02*
X156767544Y-46753371D01*
X156767544Y-46753371D02*
X156672306Y-46705752D01*
X156672306Y-46705752D02*
X156481830Y-46705752D01*
X156481830Y-46705752D02*
X156386592Y-46753371D01*
X155529449Y-47324800D02*
X155624687Y-47372419D01*
X155624687Y-47372419D02*
X155815163Y-47372419D01*
X155815163Y-47372419D02*
X155910401Y-47324800D01*
X155910401Y-47324800D02*
X155958020Y-47229561D01*
X155958020Y-47229561D02*
X155958020Y-46848609D01*
X155958020Y-46848609D02*
X155910401Y-46753371D01*
X155910401Y-46753371D02*
X155815163Y-46705752D01*
X155815163Y-46705752D02*
X155624687Y-46705752D01*
X155624687Y-46705752D02*
X155529449Y-46753371D01*
X155529449Y-46753371D02*
X155481830Y-46848609D01*
X155481830Y-46848609D02*
X155481830Y-46943847D01*
X155481830Y-46943847D02*
X155958020Y-47039085D01*
X155053258Y-47372419D02*
X155053258Y-46705752D01*
X155053258Y-46896228D02*
X155005639Y-46800990D01*
X155005639Y-46800990D02*
X154958020Y-46753371D01*
X154958020Y-46753371D02*
X154862782Y-46705752D01*
X154862782Y-46705752D02*
X154767544Y-46705752D01*
X153910401Y-46420038D02*
X154005639Y-46372419D01*
X154005639Y-46372419D02*
X154148496Y-46372419D01*
X154148496Y-46372419D02*
X154291353Y-46420038D01*
X154291353Y-46420038D02*
X154386591Y-46515276D01*
X154386591Y-46515276D02*
X154434210Y-46610514D01*
X154434210Y-46610514D02*
X154481829Y-46800990D01*
X154481829Y-46800990D02*
X154481829Y-46943847D01*
X154481829Y-46943847D02*
X154434210Y-47134323D01*
X154434210Y-47134323D02*
X154386591Y-47229561D01*
X154386591Y-47229561D02*
X154291353Y-47324800D01*
X154291353Y-47324800D02*
X154148496Y-47372419D01*
X154148496Y-47372419D02*
X154053258Y-47372419D01*
X154053258Y-47372419D02*
X153910401Y-47324800D01*
X153910401Y-47324800D02*
X153862782Y-47277180D01*
X153862782Y-47277180D02*
X153862782Y-46943847D01*
X153862782Y-46943847D02*
X154053258Y-46943847D01*
X153434210Y-47372419D02*
X153434210Y-46705752D01*
X153434210Y-46372419D02*
X153481829Y-46420038D01*
X153481829Y-46420038D02*
X153434210Y-46467657D01*
X153434210Y-46467657D02*
X153386591Y-46420038D01*
X153386591Y-46420038D02*
X153434210Y-46372419D01*
X153434210Y-46372419D02*
X153434210Y-46467657D01*
X152529449Y-46705752D02*
X152529449Y-47515276D01*
X152529449Y-47515276D02*
X152577068Y-47610514D01*
X152577068Y-47610514D02*
X152624687Y-47658133D01*
X152624687Y-47658133D02*
X152719925Y-47705752D01*
X152719925Y-47705752D02*
X152862782Y-47705752D01*
X152862782Y-47705752D02*
X152958020Y-47658133D01*
X152529449Y-47324800D02*
X152624687Y-47372419D01*
X152624687Y-47372419D02*
X152815163Y-47372419D01*
X152815163Y-47372419D02*
X152910401Y-47324800D01*
X152910401Y-47324800D02*
X152958020Y-47277180D01*
X152958020Y-47277180D02*
X153005639Y-47181942D01*
X153005639Y-47181942D02*
X153005639Y-46896228D01*
X153005639Y-46896228D02*
X152958020Y-46800990D01*
X152958020Y-46800990D02*
X152910401Y-46753371D01*
X152910401Y-46753371D02*
X152815163Y-46705752D01*
X152815163Y-46705752D02*
X152624687Y-46705752D01*
X152624687Y-46705752D02*
X152529449Y-46753371D01*
X152053258Y-47372419D02*
X152053258Y-46705752D01*
X152053258Y-46372419D02*
X152100877Y-46420038D01*
X152100877Y-46420038D02*
X152053258Y-46467657D01*
X152053258Y-46467657D02*
X152005639Y-46420038D01*
X152005639Y-46420038D02*
X152053258Y-46372419D01*
X152053258Y-46372419D02*
X152053258Y-46467657D01*
X151005640Y-47277180D02*
X151053259Y-47324800D01*
X151053259Y-47324800D02*
X151196116Y-47372419D01*
X151196116Y-47372419D02*
X151291354Y-47372419D01*
X151291354Y-47372419D02*
X151434211Y-47324800D01*
X151434211Y-47324800D02*
X151529449Y-47229561D01*
X151529449Y-47229561D02*
X151577068Y-47134323D01*
X151577068Y-47134323D02*
X151624687Y-46943847D01*
X151624687Y-46943847D02*
X151624687Y-46800990D01*
X151624687Y-46800990D02*
X151577068Y-46610514D01*
X151577068Y-46610514D02*
X151529449Y-46515276D01*
X151529449Y-46515276D02*
X151434211Y-46420038D01*
X151434211Y-46420038D02*
X151291354Y-46372419D01*
X151291354Y-46372419D02*
X151196116Y-46372419D01*
X151196116Y-46372419D02*
X151053259Y-46420038D01*
X151053259Y-46420038D02*
X151005640Y-46467657D01*
X150148497Y-47372419D02*
X150148497Y-46848609D01*
X150148497Y-46848609D02*
X150196116Y-46753371D01*
X150196116Y-46753371D02*
X150291354Y-46705752D01*
X150291354Y-46705752D02*
X150481830Y-46705752D01*
X150481830Y-46705752D02*
X150577068Y-46753371D01*
X150148497Y-47324800D02*
X150243735Y-47372419D01*
X150243735Y-47372419D02*
X150481830Y-47372419D01*
X150481830Y-47372419D02*
X150577068Y-47324800D01*
X150577068Y-47324800D02*
X150624687Y-47229561D01*
X150624687Y-47229561D02*
X150624687Y-47134323D01*
X150624687Y-47134323D02*
X150577068Y-47039085D01*
X150577068Y-47039085D02*
X150481830Y-46991466D01*
X150481830Y-46991466D02*
X150243735Y-46991466D01*
X150243735Y-46991466D02*
X150148497Y-46943847D01*
X149815163Y-46705752D02*
X149434211Y-46705752D01*
X149672306Y-46372419D02*
X149672306Y-47229561D01*
X149672306Y-47229561D02*
X149624687Y-47324800D01*
X149624687Y-47324800D02*
X149529449Y-47372419D01*
X149529449Y-47372419D02*
X149434211Y-47372419D01*
M02*
