%TF.GenerationSoftware,KiCad,Pcbnew,9.0.2-9.0.2-0~ubuntu24.04.1*%
%TF.CreationDate,2025-08-01T01:18:43+01:00*%
%TF.ProjectId,cadpadPCB,63616470-6164-4504-9342-2e6b69636164,rev?*%
%TF.SameCoordinates,Original*%
%TF.FileFunction,Legend,Top*%
%TF.FilePolarity,Positive*%
%FSLAX46Y46*%
G04 Gerber Fmt 4.6, Leading zero omitted, Abs format (unit mm)*
G04 Created by KiCad (PCBNEW 9.0.2-9.0.2-0~ubuntu24.04.1) date 2025-08-01 01:18:43*
%MOMM*%
%LPD*%
G01*
G04 APERTURE LIST*
%ADD10C,0.100000*%
%ADD11C,0.150000*%
%ADD12C,0.101600*%
%ADD13C,0.120000*%
%ADD14C,0.127000*%
%ADD15C,0.504000*%
G04 APERTURE END LIST*
D10*
X129208646Y-51372419D02*
X129875312Y-52372419D01*
X129875312Y-51372419D02*
X129208646Y-52372419D01*
X130256265Y-52372419D02*
X130256265Y-51372419D01*
X130684836Y-52086704D02*
X131161026Y-52086704D01*
X130589598Y-52372419D02*
X130922931Y-51372419D01*
X130922931Y-51372419D02*
X131256264Y-52372419D01*
X131780074Y-51372419D02*
X131970550Y-51372419D01*
X131970550Y-51372419D02*
X132065788Y-51420038D01*
X132065788Y-51420038D02*
X132161026Y-51515276D01*
X132161026Y-51515276D02*
X132208645Y-51705752D01*
X132208645Y-51705752D02*
X132208645Y-52039085D01*
X132208645Y-52039085D02*
X132161026Y-52229561D01*
X132161026Y-52229561D02*
X132065788Y-52324800D01*
X132065788Y-52324800D02*
X131970550Y-52372419D01*
X131970550Y-52372419D02*
X131780074Y-52372419D01*
X131780074Y-52372419D02*
X131684836Y-52324800D01*
X131684836Y-52324800D02*
X131589598Y-52229561D01*
X131589598Y-52229561D02*
X131541979Y-52039085D01*
X131541979Y-52039085D02*
X131541979Y-51705752D01*
X131541979Y-51705752D02*
X131589598Y-51515276D01*
X131589598Y-51515276D02*
X131684836Y-51420038D01*
X131684836Y-51420038D02*
X131780074Y-51372419D01*
X133399122Y-52372419D02*
X133399122Y-51372419D01*
X133399122Y-51848609D02*
X133970550Y-51848609D01*
X133970550Y-52372419D02*
X133970550Y-51372419D01*
X134446741Y-51848609D02*
X134780074Y-51848609D01*
X134922931Y-52372419D02*
X134446741Y-52372419D01*
X134446741Y-52372419D02*
X134446741Y-51372419D01*
X134446741Y-51372419D02*
X134922931Y-51372419D01*
X135922931Y-52372419D02*
X135589598Y-51896228D01*
X135351503Y-52372419D02*
X135351503Y-51372419D01*
X135351503Y-51372419D02*
X135732455Y-51372419D01*
X135732455Y-51372419D02*
X135827693Y-51420038D01*
X135827693Y-51420038D02*
X135875312Y-51467657D01*
X135875312Y-51467657D02*
X135922931Y-51562895D01*
X135922931Y-51562895D02*
X135922931Y-51705752D01*
X135922931Y-51705752D02*
X135875312Y-51800990D01*
X135875312Y-51800990D02*
X135827693Y-51848609D01*
X135827693Y-51848609D02*
X135732455Y-51896228D01*
X135732455Y-51896228D02*
X135351503Y-51896228D01*
X136351503Y-51848609D02*
X136684836Y-51848609D01*
X136827693Y-52372419D02*
X136351503Y-52372419D01*
X136351503Y-52372419D02*
X136351503Y-51372419D01*
X136351503Y-51372419D02*
X136827693Y-51372419D01*
X137256265Y-52277180D02*
X137303884Y-52324800D01*
X137303884Y-52324800D02*
X137256265Y-52372419D01*
X137256265Y-52372419D02*
X137208646Y-52324800D01*
X137208646Y-52324800D02*
X137256265Y-52277180D01*
X137256265Y-52277180D02*
X137256265Y-52372419D01*
X137256265Y-51991466D02*
X137208646Y-51420038D01*
X137208646Y-51420038D02*
X137256265Y-51372419D01*
X137256265Y-51372419D02*
X137303884Y-51420038D01*
X137303884Y-51420038D02*
X137256265Y-51991466D01*
X137256265Y-51991466D02*
X137256265Y-51372419D01*
D11*
X112966667Y-47301950D02*
X113109524Y-47349569D01*
X113109524Y-47349569D02*
X113347619Y-47349569D01*
X113347619Y-47349569D02*
X113442857Y-47301950D01*
X113442857Y-47301950D02*
X113490476Y-47254330D01*
X113490476Y-47254330D02*
X113538095Y-47159092D01*
X113538095Y-47159092D02*
X113538095Y-47063854D01*
X113538095Y-47063854D02*
X113490476Y-46968616D01*
X113490476Y-46968616D02*
X113442857Y-46920997D01*
X113442857Y-46920997D02*
X113347619Y-46873378D01*
X113347619Y-46873378D02*
X113157143Y-46825759D01*
X113157143Y-46825759D02*
X113061905Y-46778140D01*
X113061905Y-46778140D02*
X113014286Y-46730521D01*
X113014286Y-46730521D02*
X112966667Y-46635283D01*
X112966667Y-46635283D02*
X112966667Y-46540045D01*
X112966667Y-46540045D02*
X113014286Y-46444807D01*
X113014286Y-46444807D02*
X113061905Y-46397188D01*
X113061905Y-46397188D02*
X113157143Y-46349569D01*
X113157143Y-46349569D02*
X113395238Y-46349569D01*
X113395238Y-46349569D02*
X113538095Y-46397188D01*
X113871429Y-46349569D02*
X114109524Y-47349569D01*
X114109524Y-47349569D02*
X114300000Y-46635283D01*
X114300000Y-46635283D02*
X114490476Y-47349569D01*
X114490476Y-47349569D02*
X114728572Y-46349569D01*
X115633333Y-47349569D02*
X115061905Y-47349569D01*
X115347619Y-47349569D02*
X115347619Y-46349569D01*
X115347619Y-46349569D02*
X115252381Y-46492426D01*
X115252381Y-46492426D02*
X115157143Y-46587664D01*
X115157143Y-46587664D02*
X115061905Y-46635283D01*
X151066667Y-47301950D02*
X151209524Y-47349569D01*
X151209524Y-47349569D02*
X151447619Y-47349569D01*
X151447619Y-47349569D02*
X151542857Y-47301950D01*
X151542857Y-47301950D02*
X151590476Y-47254330D01*
X151590476Y-47254330D02*
X151638095Y-47159092D01*
X151638095Y-47159092D02*
X151638095Y-47063854D01*
X151638095Y-47063854D02*
X151590476Y-46968616D01*
X151590476Y-46968616D02*
X151542857Y-46920997D01*
X151542857Y-46920997D02*
X151447619Y-46873378D01*
X151447619Y-46873378D02*
X151257143Y-46825759D01*
X151257143Y-46825759D02*
X151161905Y-46778140D01*
X151161905Y-46778140D02*
X151114286Y-46730521D01*
X151114286Y-46730521D02*
X151066667Y-46635283D01*
X151066667Y-46635283D02*
X151066667Y-46540045D01*
X151066667Y-46540045D02*
X151114286Y-46444807D01*
X151114286Y-46444807D02*
X151161905Y-46397188D01*
X151161905Y-46397188D02*
X151257143Y-46349569D01*
X151257143Y-46349569D02*
X151495238Y-46349569D01*
X151495238Y-46349569D02*
X151638095Y-46397188D01*
X151971429Y-46349569D02*
X152209524Y-47349569D01*
X152209524Y-47349569D02*
X152400000Y-46635283D01*
X152400000Y-46635283D02*
X152590476Y-47349569D01*
X152590476Y-47349569D02*
X152828572Y-46349569D01*
X153685714Y-46349569D02*
X153209524Y-46349569D01*
X153209524Y-46349569D02*
X153161905Y-46825759D01*
X153161905Y-46825759D02*
X153209524Y-46778140D01*
X153209524Y-46778140D02*
X153304762Y-46730521D01*
X153304762Y-46730521D02*
X153542857Y-46730521D01*
X153542857Y-46730521D02*
X153638095Y-46778140D01*
X153638095Y-46778140D02*
X153685714Y-46825759D01*
X153685714Y-46825759D02*
X153733333Y-46920997D01*
X153733333Y-46920997D02*
X153733333Y-47159092D01*
X153733333Y-47159092D02*
X153685714Y-47254330D01*
X153685714Y-47254330D02*
X153638095Y-47301950D01*
X153638095Y-47301950D02*
X153542857Y-47349569D01*
X153542857Y-47349569D02*
X153304762Y-47349569D01*
X153304762Y-47349569D02*
X153209524Y-47301950D01*
X153209524Y-47301950D02*
X153161905Y-47254330D01*
X112966667Y-66351950D02*
X113109524Y-66399569D01*
X113109524Y-66399569D02*
X113347619Y-66399569D01*
X113347619Y-66399569D02*
X113442857Y-66351950D01*
X113442857Y-66351950D02*
X113490476Y-66304330D01*
X113490476Y-66304330D02*
X113538095Y-66209092D01*
X113538095Y-66209092D02*
X113538095Y-66113854D01*
X113538095Y-66113854D02*
X113490476Y-66018616D01*
X113490476Y-66018616D02*
X113442857Y-65970997D01*
X113442857Y-65970997D02*
X113347619Y-65923378D01*
X113347619Y-65923378D02*
X113157143Y-65875759D01*
X113157143Y-65875759D02*
X113061905Y-65828140D01*
X113061905Y-65828140D02*
X113014286Y-65780521D01*
X113014286Y-65780521D02*
X112966667Y-65685283D01*
X112966667Y-65685283D02*
X112966667Y-65590045D01*
X112966667Y-65590045D02*
X113014286Y-65494807D01*
X113014286Y-65494807D02*
X113061905Y-65447188D01*
X113061905Y-65447188D02*
X113157143Y-65399569D01*
X113157143Y-65399569D02*
X113395238Y-65399569D01*
X113395238Y-65399569D02*
X113538095Y-65447188D01*
X113871429Y-65399569D02*
X114109524Y-66399569D01*
X114109524Y-66399569D02*
X114300000Y-65685283D01*
X114300000Y-65685283D02*
X114490476Y-66399569D01*
X114490476Y-66399569D02*
X114728572Y-65399569D01*
X115061905Y-65494807D02*
X115109524Y-65447188D01*
X115109524Y-65447188D02*
X115204762Y-65399569D01*
X115204762Y-65399569D02*
X115442857Y-65399569D01*
X115442857Y-65399569D02*
X115538095Y-65447188D01*
X115538095Y-65447188D02*
X115585714Y-65494807D01*
X115585714Y-65494807D02*
X115633333Y-65590045D01*
X115633333Y-65590045D02*
X115633333Y-65685283D01*
X115633333Y-65685283D02*
X115585714Y-65828140D01*
X115585714Y-65828140D02*
X115014286Y-66399569D01*
X115014286Y-66399569D02*
X115633333Y-66399569D01*
D12*
X124366190Y-41533479D02*
X124366190Y-42047526D01*
X124366190Y-42047526D02*
X124396428Y-42108002D01*
X124396428Y-42108002D02*
X124426666Y-42138241D01*
X124426666Y-42138241D02*
X124487142Y-42168479D01*
X124487142Y-42168479D02*
X124608095Y-42168479D01*
X124608095Y-42168479D02*
X124668571Y-42138241D01*
X124668571Y-42138241D02*
X124698809Y-42108002D01*
X124698809Y-42108002D02*
X124729047Y-42047526D01*
X124729047Y-42047526D02*
X124729047Y-41533479D01*
X125364047Y-42168479D02*
X125001190Y-42168479D01*
X125182618Y-42168479D02*
X125182618Y-41533479D01*
X125182618Y-41533479D02*
X125122142Y-41624193D01*
X125122142Y-41624193D02*
X125061666Y-41684669D01*
X125061666Y-41684669D02*
X125001190Y-41714907D01*
D11*
X132016667Y-66351950D02*
X132159524Y-66399569D01*
X132159524Y-66399569D02*
X132397619Y-66399569D01*
X132397619Y-66399569D02*
X132492857Y-66351950D01*
X132492857Y-66351950D02*
X132540476Y-66304330D01*
X132540476Y-66304330D02*
X132588095Y-66209092D01*
X132588095Y-66209092D02*
X132588095Y-66113854D01*
X132588095Y-66113854D02*
X132540476Y-66018616D01*
X132540476Y-66018616D02*
X132492857Y-65970997D01*
X132492857Y-65970997D02*
X132397619Y-65923378D01*
X132397619Y-65923378D02*
X132207143Y-65875759D01*
X132207143Y-65875759D02*
X132111905Y-65828140D01*
X132111905Y-65828140D02*
X132064286Y-65780521D01*
X132064286Y-65780521D02*
X132016667Y-65685283D01*
X132016667Y-65685283D02*
X132016667Y-65590045D01*
X132016667Y-65590045D02*
X132064286Y-65494807D01*
X132064286Y-65494807D02*
X132111905Y-65447188D01*
X132111905Y-65447188D02*
X132207143Y-65399569D01*
X132207143Y-65399569D02*
X132445238Y-65399569D01*
X132445238Y-65399569D02*
X132588095Y-65447188D01*
X132921429Y-65399569D02*
X133159524Y-66399569D01*
X133159524Y-66399569D02*
X133350000Y-65685283D01*
X133350000Y-65685283D02*
X133540476Y-66399569D01*
X133540476Y-66399569D02*
X133778572Y-65399569D01*
X134064286Y-65399569D02*
X134683333Y-65399569D01*
X134683333Y-65399569D02*
X134350000Y-65780521D01*
X134350000Y-65780521D02*
X134492857Y-65780521D01*
X134492857Y-65780521D02*
X134588095Y-65828140D01*
X134588095Y-65828140D02*
X134635714Y-65875759D01*
X134635714Y-65875759D02*
X134683333Y-65970997D01*
X134683333Y-65970997D02*
X134683333Y-66209092D01*
X134683333Y-66209092D02*
X134635714Y-66304330D01*
X134635714Y-66304330D02*
X134588095Y-66351950D01*
X134588095Y-66351950D02*
X134492857Y-66399569D01*
X134492857Y-66399569D02*
X134207143Y-66399569D01*
X134207143Y-66399569D02*
X134111905Y-66351950D01*
X134111905Y-66351950D02*
X134064286Y-66304330D01*
X151066667Y-66351950D02*
X151209524Y-66399569D01*
X151209524Y-66399569D02*
X151447619Y-66399569D01*
X151447619Y-66399569D02*
X151542857Y-66351950D01*
X151542857Y-66351950D02*
X151590476Y-66304330D01*
X151590476Y-66304330D02*
X151638095Y-66209092D01*
X151638095Y-66209092D02*
X151638095Y-66113854D01*
X151638095Y-66113854D02*
X151590476Y-66018616D01*
X151590476Y-66018616D02*
X151542857Y-65970997D01*
X151542857Y-65970997D02*
X151447619Y-65923378D01*
X151447619Y-65923378D02*
X151257143Y-65875759D01*
X151257143Y-65875759D02*
X151161905Y-65828140D01*
X151161905Y-65828140D02*
X151114286Y-65780521D01*
X151114286Y-65780521D02*
X151066667Y-65685283D01*
X151066667Y-65685283D02*
X151066667Y-65590045D01*
X151066667Y-65590045D02*
X151114286Y-65494807D01*
X151114286Y-65494807D02*
X151161905Y-65447188D01*
X151161905Y-65447188D02*
X151257143Y-65399569D01*
X151257143Y-65399569D02*
X151495238Y-65399569D01*
X151495238Y-65399569D02*
X151638095Y-65447188D01*
X151971429Y-65399569D02*
X152209524Y-66399569D01*
X152209524Y-66399569D02*
X152400000Y-65685283D01*
X152400000Y-65685283D02*
X152590476Y-66399569D01*
X152590476Y-66399569D02*
X152828572Y-65399569D01*
X153638095Y-65732902D02*
X153638095Y-66399569D01*
X153400000Y-65351950D02*
X153161905Y-66066235D01*
X153161905Y-66066235D02*
X153780952Y-66066235D01*
D13*
%TO.C,SW1*%
X107315000Y-47783750D02*
X121285000Y-47783750D01*
X107315000Y-61753750D02*
X107315000Y-47783750D01*
X121285000Y-47783750D02*
X121285000Y-61753750D01*
X121285000Y-61753750D02*
X107315000Y-61753750D01*
%TO.C,SW5*%
X145415000Y-47783750D02*
X159385000Y-47783750D01*
X145415000Y-61753750D02*
X145415000Y-47783750D01*
X159385000Y-47783750D02*
X159385000Y-61753750D01*
X159385000Y-61753750D02*
X145415000Y-61753750D01*
%TO.C,SW2*%
X107315000Y-66833750D02*
X121285000Y-66833750D01*
X107315000Y-80803750D02*
X107315000Y-66833750D01*
X121285000Y-66833750D02*
X121285000Y-80803750D01*
X121285000Y-80803750D02*
X107315000Y-80803750D01*
D14*
%TO.C,U1*%
X124460000Y-62389000D02*
X124460000Y-45244000D01*
X126365000Y-64294000D02*
X140335000Y-64294000D01*
X128855000Y-43339000D02*
X128858728Y-42428728D01*
X129358728Y-41929000D02*
X137354000Y-41929000D01*
X137854000Y-42429000D02*
X137854000Y-43339000D01*
D10*
X140335000Y-43339000D02*
X126365000Y-43339000D01*
D14*
X140335000Y-43339000D02*
X126365000Y-43339000D01*
X142240000Y-62389000D02*
X142240000Y-45244000D01*
X124460000Y-45244000D02*
G75*
G02*
X126365000Y-43339000I1905001J-1D01*
G01*
X126365000Y-64294000D02*
G75*
G02*
X124460000Y-62389000I1J1905001D01*
G01*
X128858728Y-42428728D02*
G75*
G02*
X129358728Y-41929001I500018J-291D01*
G01*
X137354000Y-41929000D02*
G75*
G02*
X137854000Y-42429000I0J-500000D01*
G01*
X140335000Y-43339000D02*
G75*
G02*
X142240000Y-45244000I0J-1905000D01*
G01*
X142240000Y-62389000D02*
G75*
G02*
X140335000Y-64294000I-1905000J0D01*
G01*
D15*
X124652000Y-43580000D02*
G75*
G02*
X124148000Y-43580000I-252000J0D01*
G01*
X124148000Y-43580000D02*
G75*
G02*
X124652000Y-43580000I252000J0D01*
G01*
X125795000Y-44460000D02*
G75*
G02*
X125291000Y-44460000I-252000J0D01*
G01*
X125291000Y-44460000D02*
G75*
G02*
X125795000Y-44460000I252000J0D01*
G01*
D13*
%TO.C,SW3*%
X126365000Y-66833750D02*
X140335000Y-66833750D01*
X126365000Y-80803750D02*
X126365000Y-66833750D01*
X140335000Y-66833750D02*
X140335000Y-80803750D01*
X140335000Y-80803750D02*
X126365000Y-80803750D01*
%TO.C,SW4*%
X145415000Y-66833750D02*
X159385000Y-66833750D01*
X145415000Y-80803750D02*
X145415000Y-66833750D01*
X159385000Y-66833750D02*
X159385000Y-80803750D01*
X159385000Y-80803750D02*
X145415000Y-80803750D01*
%TD*%
M02*
